<svg id="Calque_1" data-name="Calque 1" xmlns="http://www.w3.org/2000/svg" viewBox="0 0 119 149.95"><defs><style>.cls-1{fill:#858182;}.cls-2{fill:#adabac;}.cls-3{fill:#202123;}.cls-3,.cls-5{opacity:0.1;}.cls-4{fill:#7f8b9b;}.cls-5,.cls-6{fill:#d5dce4;}.cls-7{fill:#fff;opacity:0.3;}.cls-8{fill:#51504f;}.cls-9{fill:#5c6d7f;opacity:0.4;}.cls-10{fill:#b4bdc5;}.cls-11{fill:#6a7783;}.cls-12{fill:#302f2e;}.cls-13{fill:#ff4d0d;}</style></defs><rect class="cls-1" y="98.04" width="119" height="7.58"/><rect class="cls-2" y="104.88" width="119" height="45.07"/><path class="cls-3" d="M15.79,117.37c0,.66-.29,1.19-.64,1.19H7.06c-.35,0-.63-.53-.63-1.19h0c0-.65.28-1.19.63-1.19h8.09c.35,0,.64.54.64,1.19Z" transform="translate(0 -1.05)"/><path class="cls-3" d="M24.36,126.59c0,.66-.29,1.19-.64,1.19H15.63c-.35,0-.64-.53-.64-1.19h0c0-.66.29-1.19.64-1.19h8.09c.35,0,.64.53.64,1.19Z" transform="translate(0 -1.05)"/><path class="cls-3" d="M19.28,144.73c0,.65-.18,1.19-.39,1.19H14c-.21,0-.38-.54-.38-1.19h0c0-.66.17-1.19.38-1.19h4.94c.21,0,.39.53.39,1.19Z" transform="translate(0 -1.05)"/><path class="cls-3" d="M90,118c0,.65.29,1.19.64,1.19h8.09c.35,0,.64-.54.64-1.19h0c0-.66-.29-1.19-.64-1.19H90.6c-.35,0-.64.53-.64,1.19Z" transform="translate(0 -1.05)"/><path class="cls-3" d="M36.81,142.65c0,.65.28,1.19.64,1.19h8.09c.35,0,.63-.54.63-1.19h0c0-.66-.28-1.19-.63-1.19H37.45c-.36,0-.64.53-.64,1.19Z" transform="translate(0 -1.05)"/><path class="cls-3" d="M60.61,141.75c0,.66.17,1.19.39,1.19h4.94c.21,0,.38-.53.38-1.19h0c0-.65-.17-1.18-.38-1.18H61c-.22,0-.39.53-.39,1.18Z" transform="translate(0 -1.05)"/><path class="cls-3" d="M50.14,125.4c0,.66.17,1.19.39,1.19h4.93c.22,0,.39-.53.39-1.19h0c0-.66-.17-1.19-.39-1.19H50.53c-.22,0-.39.53-.39,1.19Z" transform="translate(0 -1.05)"/><path class="cls-3" d="M102,148.93c0,.65.18,1.19.39,1.19h4.94c.21,0,.38-.54.38-1.19h0c0-.66-.17-1.19-.38-1.19h-4.94c-.21,0-.39.53-.39,1.19Z" transform="translate(0 -1.05)"/><path class="cls-3" d="M94.33,134.92c0,.65.17,1.19.38,1.19h4.94c.22,0,.39-.54.39-1.19h0c0-.66-.17-1.19-.39-1.19H94.71c-.21,0-.38.53-.38,1.19Z" transform="translate(0 -1.05)"/><rect class="cls-4" x="27.61" y="13.97" width="61.59" height="90.88"/><polygon class="cls-5" points="27.61 62.36 27.61 84.58 89.2 14.45 89.2 13.97 70.1 13.97 27.61 62.36"/><polygon class="cls-5" points="56.86 104.85 89.2 68.03 89.2 53.65 44.24 104.85 56.86 104.85"/><polygon class="cls-5" points="27.61 93.73 89.2 23.6 89.2 17.71 27.61 87.84 27.61 93.73"/><polygon class="cls-5" points="73.86 104.85 89.2 87.38 89.2 81.5 68.69 104.85 73.86 104.85"/><rect class="cls-6" x="56" y="12.72" width="2.59" height="92.13"/><polygon class="cls-6" points="100.95 11.02 100.95 0 16.59 0 16.59 11.02 16.59 11.02 16.59 108.47 26.51 108.47 26.51 14.52 91.04 14.52 91.04 108.48 100.96 108.48 100.96 11.02 100.95 11.02"/><polygon class="cls-7" points="50.96 0 37.84 14.52 47.14 14.52 60.26 0 50.96 0"/><polygon class="cls-6" points="58.94 12.72 58.94 104.86 61.53 104.85 61.53 12.72 58.94 12.72"/><polygon class="cls-7" points="64.32 0 51.21 14.52 56.73 14.52 69.84 0 64.32 0"/><polygon class="cls-8" points="88.63 14.16 28.91 14.16 28.91 14.6 28.9 14.6 28.9 104.85 29.62 104.85 29.62 14.88 58.37 14.88 58.37 104.86 59.09 104.86 59.09 14.88 87.91 14.88 87.91 104.85 88.63 104.85 88.63 14.88 88.63 14.88 88.63 14.16"/><polygon class="cls-9" points="27.61 13.97 27.61 18.07 84.67 18.07 84.67 104.85 89.2 104.85 89.2 13.97 27.61 13.97"/><polygon class="cls-10" points="28.95 104.86 28.94 14.29 26.51 10.52 26.51 108.47 28.95 104.86"/><polygon class="cls-10" points="88.61 104.82 88.62 14.29 91.05 10.52 91.05 108.49 88.61 104.82"/><polygon class="cls-4" points="91.06 10.51 58.69 10.52 26.51 10.51 28.93 14.29 58.69 14.28 88.63 14.29 91.06 10.51"/><polygon class="cls-7" points="16.59 48.35 26.51 37.37 26.51 27.07 16.59 38.05 16.59 48.35"/><polygon class="cls-7" points="16.59 58.96 26.51 47.98 26.51 41.87 16.59 52.85 16.59 58.96"/><polygon class="cls-7" points="100.96 48.53 100.96 34.12 91.04 45.1 91.04 59.51 100.96 48.53"/><polygon class="cls-7" points="100.96 63.39 100.96 54.84 91.04 65.82 91.04 74.38 100.96 63.39"/><path class="cls-4" d="M9.35,64.37A3.66,3.66,0,0,1,5.68,68h0A3.66,3.66,0,0,1,2,64.37V47.76A3.66,3.66,0,0,1,5.68,44.1h0a3.66,3.66,0,0,1,3.67,3.66Z" transform="translate(0 -1.05)"/><path class="cls-11" d="M5.68,44.1a2.11,2.11,0,0,0-.35,0,3.66,3.66,0,0,1,3.32,3.64V64.37A3.66,3.66,0,0,1,5.33,68l.35,0a3.66,3.66,0,0,0,3.67-3.66V47.76A3.66,3.66,0,0,0,5.68,44.1Z" transform="translate(0 -1.05)"/><path class="cls-8" d="M7.84,60.3a2.16,2.16,0,1,1-2.16-2.15A2.16,2.16,0,0,1,7.84,60.3Z" transform="translate(0 -1.05)"/><path class="cls-12" d="M5.68,58.15a2.16,2.16,0,0,0-1.31.45,2.22,2.22,0,0,1,1.17-.34,2.14,2.14,0,0,1,1.31,3.85,2.15,2.15,0,0,0-1.17-4Z" transform="translate(0 -1.05)"/><polygon class="cls-13" points="4.61 58.32 5.68 60.19 6.76 58.32 4.61 58.32"/><path class="cls-8" d="M7.84,50.93a2.16,2.16,0,1,1-2.16-2.16A2.16,2.16,0,0,1,7.84,50.93Z" transform="translate(0 -1.05)"/><path class="cls-12" d="M5.68,48.77a2.16,2.16,0,0,0-1.31.45,2.22,2.22,0,0,1,1.17-.34,2.14,2.14,0,0,1,1.31,3.85,2.12,2.12,0,0,0,1-1.8A2.16,2.16,0,0,0,5.68,48.77Z" transform="translate(0 -1.05)"/><polygon class="cls-13" points="4.61 50.81 5.68 48.94 6.76 50.81 4.61 50.81"/><path class="cls-4" d="M114.22,64.37A3.66,3.66,0,0,1,110.56,68h0a3.66,3.66,0,0,1-3.67-3.66V47.76a3.66,3.66,0,0,1,3.67-3.66h0a3.66,3.66,0,0,1,3.66,3.66Z" transform="translate(0 -1.05)"/><path class="cls-11" d="M110.56,44.1a2.17,2.17,0,0,0-.36,0,3.65,3.65,0,0,1,3.32,3.64V64.37A3.65,3.65,0,0,1,110.2,68l.36,0a3.66,3.66,0,0,0,3.66-3.66V47.76A3.66,3.66,0,0,0,110.56,44.1Z" transform="translate(0 -1.05)"/><path class="cls-8" d="M112.71,60.3a2.16,2.16,0,1,1-2.15-2.15A2.15,2.15,0,0,1,112.71,60.3Z" transform="translate(0 -1.05)"/><path class="cls-12" d="M110.56,58.15a2.17,2.17,0,0,0-1.32.45,2.22,2.22,0,0,1,1.17-.34,2.14,2.14,0,0,1,1.31,3.85,2.15,2.15,0,0,0-1.16-4Z" transform="translate(0 -1.05)"/><polygon class="cls-13" points="109.48 58.32 110.56 60.19 111.63 58.32 109.48 58.32"/><path class="cls-8" d="M112.71,50.93a2.16,2.16,0,1,1-2.15-2.16A2.15,2.15,0,0,1,112.71,50.93Z" transform="translate(0 -1.05)"/><path class="cls-12" d="M110.56,48.77a2.17,2.17,0,0,0-1.32.45,2.22,2.22,0,0,1,1.17-.34,2.14,2.14,0,0,1,1.31,3.85,2.12,2.12,0,0,0,1-1.8A2.15,2.15,0,0,0,110.56,48.77Z" transform="translate(0 -1.05)"/><polygon class="cls-13" points="109.48 50.81 110.56 48.94 111.63 50.81 109.48 50.81"/></svg>