<svg id="Calque_1" data-name="Calque 1" xmlns="http://www.w3.org/2000/svg" viewBox="0 0 128.77 141.77"><defs><style>.cls-1{fill:#858182;}.cls-2{fill:#adabac;}.cls-3{fill:#202123;opacity:0.1;}.cls-4{fill:#696c72;}.cls-5{fill:#808287;}.cls-6{fill:#7f8b9b;}.cls-7{fill:#d5dce4;}.cls-8{fill:#fff;opacity:0.3;}.cls-9{fill:#b4bdc5;}.cls-10{fill:#51504f;}.cls-11{fill:#faaf55;}.cls-12{fill:#c68545;}.cls-13{fill:#6a7783;}.cls-14{fill:#302f2e;}.cls-15{fill:#ff4d0d;}</style></defs><polyline class="cls-1" points="125.24 101.35 0 101.35 0 94.07 125.24 94.07"/><polyline class="cls-2" points="124.18 141.77 1.06 141.77 1.06 98.52 124.18 98.52"/><path class="cls-3" d="M33.9,119.83A1.15,1.15,0,0,1,32.75,121H18.2a1.14,1.14,0,0,1-1.14-1.14h0a1.14,1.14,0,0,1,1.14-1.15H32.75a1.15,1.15,0,0,1,1.15,1.15Z" transform="translate(4 -8.2)"/><path class="cls-3" d="M49.3,128.67a1.14,1.14,0,0,1-1.14,1.14H33.61a1.14,1.14,0,0,1-1.14-1.14h0a1.14,1.14,0,0,1,1.14-1.14H48.16a1.14,1.14,0,0,1,1.14,1.14Z" transform="translate(4 -8.2)"/><path class="cls-3" d="M40.17,146.07c0,.63-.31,1.14-.69,1.14H30.6c-.39,0-.7-.51-.7-1.14h0c0-.63.31-1.14.7-1.14h8.88c.38,0,.69.51.69,1.14Z" transform="translate(4 -8.2)"/><path class="cls-3" d="M71.7,144.08a1.14,1.14,0,0,0,1.14,1.14H87.39a1.14,1.14,0,0,0,1.14-1.14h0a1.15,1.15,0,0,0-1.14-1.15H72.84a1.15,1.15,0,0,0-1.14,1.15Z" transform="translate(4 -8.2)"/><path class="cls-3" d="M114.49,143.22c0,.63.32,1.14.7,1.14h8.88c.38,0,.7-.51.7-1.14h0c0-.63-.32-1.14-.7-1.14h-8.88c-.38,0-.7.51-.7,1.14Z" transform="translate(4 -8.2)"/><path class="cls-3" d="M95.66,127.53c0,.63.32,1.14.7,1.14h8.88c.38,0,.69-.51.69-1.14h0c0-.63-.31-1.14-.69-1.14H96.36c-.38,0-.7.51-.7,1.14Z" transform="translate(4 -8.2)"/><polygon class="cls-4" points="49.46 87.7 76.91 87.7 91.8 100.07 34.43 100.07 49.46 87.7"/><polygon class="cls-4" points="76.69 13.62 34.48 13.62 49.7 25.1 76.69 25.1 76.69 25.09 91.78 13.62 91.78 13.62 76.69 13.62"/><polygon class="cls-5" points="76.69 25.09 91.78 13.62 91.78 100.55 76.69 87.79 76.69 25.09"/><polygon class="cls-5" points="49.68 25.09 34.59 13.62 34.59 100.55 49.68 87.79 49.68 25.09"/><rect class="cls-6" x="86.09" y="13.41" width="6.27" height="87.17"/><rect class="cls-6" x="34.09" y="13.41" width="6.27" height="87.2"/><rect class="cls-7" x="37.88" y="12.21" width="2.48" height="88.34"/><polygon class="cls-7" points="103.64 10.58 103.64 0 22.69 0 22.69 10.57 22.68 10.57 22.68 104.08 32.2 104.08 32.2 13.93 94.13 13.93 94.13 104.09 103.64 104.09 103.64 10.58 103.64 10.58"/><polygon class="cls-8" points="55.66 0 43.08 13.93 52 13.93 64.58 0 55.66 0"/><rect class="cls-7" x="85.12" y="12.34" width="2.48" height="88.24"/><polygon class="cls-8" points="68.49 0 55.91 13.93 61.2 13.93 73.78 0 68.49 0"/><polygon class="cls-9" points="34.55 100.62 34.53 13.71 32.2 10.09 32.2 104.08 34.55 100.62"/><polygon class="cls-9" points="91.79 100.58 91.8 13.71 94.13 10.09 94.13 104.1 91.79 100.58"/><polygon class="cls-6" points="94.14 10.09 63.08 10.1 32.2 10.09 34.52 13.71 63.08 13.7 91.81 13.71 94.14 10.09"/><polygon class="cls-8" points="22.68 46.39 32.2 35.86 32.2 25.98 22.68 36.52 22.68 46.39"/><polygon class="cls-8" points="22.68 56.58 32.2 46.04 32.2 40.18 22.68 50.71 22.68 56.58"/><polygon class="cls-8" points="103.64 46.57 103.64 32.74 94.13 43.28 94.13 57.11 103.64 46.57"/><polygon class="cls-8" points="103.64 60.83 103.64 52.62 94.13 63.16 94.13 71.37 103.64 60.83"/><rect class="cls-7" x="76.69" y="13.61" width="15.09" height="0.01"/><rect class="cls-6" x="49.6" y="25.07" width="27.24" height="62.73"/><path class="cls-10" d="M30.5,21.79v.43h0v86h0v.63H87.81V22.48h0v-.69Zm.69,86.38V22.48H87.12v85.69Z" transform="translate(4 -8.2)"/><path class="cls-11" d="M71.6,26.32c0,.72-1.9,1.3-4.24,1.3s-4.24-.58-4.24-1.3S65,25,67.36,25,71.6,25.61,71.6,26.32Z" transform="translate(4 -8.2)"/><path class="cls-12" d="M67.41,25.26c2.12,0,3.87.47,4.19,1.09v0c0-.71-1.9-1.29-4.24-1.29s-4.24.58-4.24,1.29a.54.54,0,0,0,.05.21C63.22,25.82,65.1,25.26,67.41,25.26Z" transform="translate(4 -8.2)"/><path class="cls-11" d="M56,26.32c0,.72-1.9,1.3-4.24,1.3S47.5,27,47.5,26.32,49.4,25,51.74,25,56,25.61,56,26.32Z" transform="translate(4 -8.2)"/><path class="cls-12" d="M51.79,25.26c2.12,0,3.87.47,4.19,1.09v0c0-.71-1.9-1.29-4.24-1.29s-4.24.58-4.24,1.29a.54.54,0,0,0,0,.21C47.6,25.82,49.48,25.26,51.79,25.26Z" transform="translate(4 -8.2)"/><path class="cls-11" d="M71.7,30.15c0,.63-1.89,1.14-4.24,1.14s-4.24-.51-4.24-1.14S65.12,29,67.46,29,71.7,29.52,71.7,30.15Z" transform="translate(4 -8.2)"/><path class="cls-12" d="M67.52,29.21c2.11,0,3.86.42,4.18,1v0c0-.63-1.89-1.14-4.24-1.14s-4.24.51-4.24,1.14a.32.32,0,0,0,.06.18C63.32,29.71,65.2,29.21,67.52,29.21Z" transform="translate(4 -8.2)"/><path class="cls-11" d="M56.08,30.15c0,.63-1.89,1.14-4.24,1.14s-4.24-.51-4.24-1.14S49.5,29,51.84,29,56.08,29.52,56.08,30.15Z" transform="translate(4 -8.2)"/><path class="cls-12" d="M51.89,29.21c2.12,0,3.87.42,4.19,1v0c0-.63-1.89-1.14-4.24-1.14s-4.24.51-4.24,1.14a.32.32,0,0,0,.06.18C47.7,29.71,49.58,29.21,51.89,29.21Z" transform="translate(4 -8.2)"/><path class="cls-6" d="M114.27,69a3.52,3.52,0,0,1-3.52,3.52h0A3.52,3.52,0,0,1,107.24,69V53a3.52,3.52,0,0,1,3.51-3.52h0A3.52,3.52,0,0,1,114.27,53Z" transform="translate(4 -8.2)"/><path class="cls-13" d="M110.75,49.51l-.33,0A3.52,3.52,0,0,1,113.6,53V69a3.52,3.52,0,0,1-3.18,3.5l.33,0A3.52,3.52,0,0,0,114.27,69V53A3.52,3.52,0,0,0,110.75,49.51Z" transform="translate(4 -8.2)"/><path class="cls-10" d="M112.82,65.07A2.07,2.07,0,1,1,110.75,63,2.06,2.06,0,0,1,112.82,65.07Z" transform="translate(4 -8.2)"/><path class="cls-14" d="M110.75,63a2,2,0,0,0-1.25.43,2,2,0,0,1,1.12-.33,2.06,2.06,0,0,1,1.25,3.7,2.06,2.06,0,0,0-1.12-3.8Z" transform="translate(4 -8.2)"/><polygon class="cls-15" points="113.72 55.96 114.75 57.76 115.79 55.96 113.72 55.96"/><path class="cls-10" d="M112.82,56.07A2.07,2.07,0,1,1,110.75,54,2.06,2.06,0,0,1,112.82,56.07Z" transform="translate(4 -8.2)"/><path class="cls-14" d="M110.75,54a2,2,0,0,0-1.25.43,2,2,0,0,1,1.12-.33,2.06,2.06,0,0,1,1.25,3.7,2.06,2.06,0,0,0-1.12-3.8Z" transform="translate(4 -8.2)"/><polygon class="cls-15" points="113.72 48.76 114.75 46.96 115.79 48.76 113.72 48.76"/><path class="cls-6" d="M9.05,68.35a3.53,3.53,0,0,1-3.52,3.52h0A3.53,3.53,0,0,1,2,68.35V52.42A3.53,3.53,0,0,1,5.53,48.9h0a3.53,3.53,0,0,1,3.52,3.52Z" transform="translate(4 -8.2)"/><path class="cls-13" d="M5.53,48.9l-.34,0a3.51,3.51,0,0,1,3.18,3.5V68.35a3.51,3.51,0,0,1-3.18,3.5l.34,0a3.53,3.53,0,0,0,3.52-3.52V52.42A3.53,3.53,0,0,0,5.53,48.9Z" transform="translate(4 -8.2)"/><path class="cls-10" d="M7.6,64.46a2.07,2.07,0,1,1-2.07-2.07A2.07,2.07,0,0,1,7.6,64.46Z" transform="translate(4 -8.2)"/><path class="cls-14" d="M5.53,62.39a2,2,0,0,0-1.26.43,2.06,2.06,0,0,1,2.38,3.37,2.06,2.06,0,0,0-1.12-3.8Z" transform="translate(4 -8.2)"/><polygon class="cls-15" points="8.49 55.35 9.53 57.15 10.57 55.35 8.49 55.35"/><path class="cls-10" d="M7.6,55.46a2.07,2.07,0,1,1-2.07-2.07A2.07,2.07,0,0,1,7.6,55.46Z" transform="translate(4 -8.2)"/><path class="cls-14" d="M5.53,53.39a2,2,0,0,0-1.26.43,2.06,2.06,0,0,1,2.38,3.37,2.06,2.06,0,0,0-1.12-3.8Z" transform="translate(4 -8.2)"/><polygon class="cls-15" points="8.49 48.15 9.53 46.35 10.57 48.15 8.49 48.15"/></svg>